<mxfile host="app.diagrams.net" modified="2023-04-04T22:08:33.317Z" agent="Mozilla/5.0 (Windows NT 10.0; Win64; x64) AppleWebKit/537.36 (KHTML, like Gecko) Chrome/110.0.0.0 YaBrowser/23.3.0.2246 Yowser/2.5 Safari/537.36" etag="xQk2g3kFYnuH-R7gzHrj" version="21.1.4" type="github">
  <diagram name="Page-1" id="c37626ed-c26b-45fb-9056-f9ebc6bb27b6">
    <mxGraphModel dx="2391" dy="1119" grid="1" gridSize="10" guides="1" tooltips="1" connect="1" arrows="1" fold="1" page="1" pageScale="1" pageWidth="1700" pageHeight="1100" background="none" math="0" shadow="0">
      <root>
        <mxCell id="0" />
        <mxCell id="1" parent="0" />
        <mxCell id="NG0Zpgs2vCCvzgkHaFSl-1" value="Internet" style="html=1;outlineConnect=0;fillColor=#CCCCCC;strokeColor=#6881B3;gradientColor=none;gradientDirection=north;strokeWidth=2;shape=mxgraph.networks.cloud;fontColor=#ffffff;fontSize=14;fontFamily=Times New Roman;" vertex="1" parent="1">
          <mxGeometry x="625" y="50" width="90" height="50" as="geometry" />
        </mxCell>
        <mxCell id="NG0Zpgs2vCCvzgkHaFSl-2" value="Firewall" style="fontColor=#0066CC;verticalAlign=top;verticalLabelPosition=bottom;labelPosition=center;align=center;html=1;outlineConnect=0;fillColor=#CCCCCC;strokeColor=#6881B3;gradientColor=none;gradientDirection=north;strokeWidth=2;shape=mxgraph.networks.firewall;fontFamily=Times New Roman;fontSize=14;" vertex="1" parent="1">
          <mxGeometry x="440" y="160" width="100" height="100" as="geometry" />
        </mxCell>
        <mxCell id="NG0Zpgs2vCCvzgkHaFSl-9" value="Router" style="fontColor=#0066CC;verticalAlign=top;verticalLabelPosition=bottom;labelPosition=center;align=center;html=1;outlineConnect=0;fillColor=#CCCCCC;strokeColor=#6881B3;gradientColor=none;gradientDirection=north;strokeWidth=2;shape=mxgraph.networks.router;fontFamily=Times New Roman;fontSize=14;" vertex="1" parent="1">
          <mxGeometry x="330" y="330" width="100" height="30" as="geometry" />
        </mxCell>
        <mxCell id="NG0Zpgs2vCCvzgkHaFSl-13" value="Firewall" style="fontColor=#0066CC;verticalAlign=top;verticalLabelPosition=bottom;labelPosition=center;align=center;html=1;outlineConnect=0;fillColor=#CCCCCC;strokeColor=#6881B3;gradientColor=none;gradientDirection=north;strokeWidth=2;shape=mxgraph.networks.firewall;fontFamily=Times New Roman;fontSize=14;" vertex="1" parent="1">
          <mxGeometry x="870" y="180" width="100" height="100" as="geometry" />
        </mxCell>
        <mxCell id="NG0Zpgs2vCCvzgkHaFSl-14" value="Router" style="fontColor=#0066CC;verticalAlign=top;verticalLabelPosition=bottom;labelPosition=center;align=center;html=1;outlineConnect=0;fillColor=#CCCCCC;strokeColor=#6881B3;gradientColor=none;gradientDirection=north;strokeWidth=2;shape=mxgraph.networks.router;fontFamily=Times New Roman;fontSize=14;" vertex="1" parent="1">
          <mxGeometry x="980" y="370" width="100" height="30" as="geometry" />
        </mxCell>
        <mxCell id="NG0Zpgs2vCCvzgkHaFSl-17" value="Switch" style="fontColor=#0066CC;verticalAlign=top;verticalLabelPosition=bottom;labelPosition=center;align=center;html=1;outlineConnect=0;fillColor=#CCCCCC;strokeColor=#6881B3;gradientColor=none;gradientDirection=north;strokeWidth=2;shape=mxgraph.networks.switch;fontFamily=Times New Roman;fontSize=14;" vertex="1" parent="1">
          <mxGeometry x="250" y="500" width="100" height="30" as="geometry" />
        </mxCell>
        <mxCell id="NG0Zpgs2vCCvzgkHaFSl-21" value="PC" style="fontColor=#0066CC;verticalAlign=top;verticalLabelPosition=bottom;labelPosition=center;align=center;html=1;outlineConnect=0;fillColor=#CCCCCC;strokeColor=#6881B3;gradientColor=none;gradientDirection=north;strokeWidth=2;shape=mxgraph.networks.pc;fontFamily=Times New Roman;fontSize=14;" vertex="1" parent="1">
          <mxGeometry x="90" y="720" width="100" height="70" as="geometry" />
        </mxCell>
        <mxCell id="NG0Zpgs2vCCvzgkHaFSl-22" value="Mail Server" style="fontColor=#0066CC;verticalAlign=top;verticalLabelPosition=bottom;labelPosition=center;align=center;html=1;outlineConnect=0;fillColor=#CCCCCC;strokeColor=#6881B3;gradientColor=none;gradientDirection=north;strokeWidth=2;shape=mxgraph.networks.mail_server;fontFamily=Times New Roman;fontSize=14;" vertex="1" parent="1">
          <mxGeometry x="720" y="498" width="105" height="105" as="geometry" />
        </mxCell>
        <mxCell id="NG0Zpgs2vCCvzgkHaFSl-23" value="Proxy server" style="fontColor=#0066CC;verticalAlign=top;verticalLabelPosition=bottom;labelPosition=center;align=center;html=1;outlineConnect=0;fillColor=#CCCCCC;strokeColor=#6881B3;gradientColor=none;gradientDirection=north;strokeWidth=2;shape=mxgraph.networks.server;fontFamily=Times New Roman;fontSize=14;" vertex="1" parent="1">
          <mxGeometry x="625" y="195" width="90" height="100" as="geometry" />
        </mxCell>
        <mxCell id="NG0Zpgs2vCCvzgkHaFSl-24" value="PC" style="fontColor=#0066CC;verticalAlign=top;verticalLabelPosition=bottom;labelPosition=center;align=center;html=1;outlineConnect=0;fillColor=#CCCCCC;strokeColor=#6881B3;gradientColor=none;gradientDirection=north;strokeWidth=2;shape=mxgraph.networks.pc;fontFamily=Times New Roman;fontSize=14;" vertex="1" parent="1">
          <mxGeometry x="575" y="500" width="100" height="70" as="geometry" />
        </mxCell>
        <mxCell id="NG0Zpgs2vCCvzgkHaFSl-25" value="" style="endArrow=none;html=1;rounded=0;entryX=0.5;entryY=1;entryDx=0;entryDy=0;entryPerimeter=0;exitX=0.5;exitY=0;exitDx=0;exitDy=0;exitPerimeter=0;fontFamily=Times New Roman;fontSize=14;" edge="1" parent="1" source="NG0Zpgs2vCCvzgkHaFSl-23" target="NG0Zpgs2vCCvzgkHaFSl-1">
          <mxGeometry width="50" height="50" relative="1" as="geometry">
            <mxPoint x="510" y="480" as="sourcePoint" />
            <mxPoint x="560" y="430" as="targetPoint" />
          </mxGeometry>
        </mxCell>
        <mxCell id="NG0Zpgs2vCCvzgkHaFSl-29" value="" style="endArrow=none;html=1;rounded=0;fontFamily=Times New Roman;fontSize=14;" edge="1" parent="1" source="NG0Zpgs2vCCvzgkHaFSl-21" target="NG0Zpgs2vCCvzgkHaFSl-17">
          <mxGeometry width="50" height="50" relative="1" as="geometry">
            <mxPoint x="510" y="680" as="sourcePoint" />
            <mxPoint x="245" y="650" as="targetPoint" />
          </mxGeometry>
        </mxCell>
        <mxCell id="NG0Zpgs2vCCvzgkHaFSl-32" value="PC" style="fontColor=#0066CC;verticalAlign=top;verticalLabelPosition=bottom;labelPosition=center;align=center;html=1;outlineConnect=0;fillColor=#CCCCCC;strokeColor=#6881B3;gradientColor=none;gradientDirection=north;strokeWidth=2;shape=mxgraph.networks.pc;fontFamily=Times New Roman;fontSize=14;" vertex="1" parent="1">
          <mxGeometry x="250" y="738" width="100" height="70" as="geometry" />
        </mxCell>
        <mxCell id="NG0Zpgs2vCCvzgkHaFSl-33" value="" style="endArrow=none;html=1;rounded=0;exitX=0.5;exitY=0.07;exitDx=0;exitDy=0;exitPerimeter=0;fontFamily=Times New Roman;fontSize=14;" edge="1" parent="1" source="NG0Zpgs2vCCvzgkHaFSl-32">
          <mxGeometry width="50" height="50" relative="1" as="geometry">
            <mxPoint x="510" y="780" as="sourcePoint" />
            <mxPoint x="280" y="540" as="targetPoint" />
          </mxGeometry>
        </mxCell>
        <mxCell id="NG0Zpgs2vCCvzgkHaFSl-34" value="IP-telephone" style="fontColor=#0066CC;verticalAlign=top;verticalLabelPosition=bottom;labelPosition=center;align=center;html=1;outlineConnect=0;fillColor=#CCCCCC;strokeColor=#6881B3;gradientColor=none;gradientDirection=north;strokeWidth=2;shape=mxgraph.networks.phone_2;fontFamily=Times New Roman;fontSize=14;" vertex="1" parent="1">
          <mxGeometry x="20" y="890" width="100" height="90" as="geometry" />
        </mxCell>
        <mxCell id="NG0Zpgs2vCCvzgkHaFSl-35" value="IP-telephone" style="fontColor=#0066CC;verticalAlign=top;verticalLabelPosition=bottom;labelPosition=center;align=center;html=1;outlineConnect=0;fillColor=#CCCCCC;strokeColor=#6881B3;gradientColor=none;gradientDirection=north;strokeWidth=2;shape=mxgraph.networks.phone_2;fontFamily=Times New Roman;fontSize=14;" vertex="1" parent="1">
          <mxGeometry x="290" y="890" width="100" height="90" as="geometry" />
        </mxCell>
        <mxCell id="NG0Zpgs2vCCvzgkHaFSl-36" value="Printer" style="fontColor=#0066CC;verticalAlign=top;verticalLabelPosition=bottom;labelPosition=center;align=center;html=1;outlineConnect=0;fillColor=#CCCCCC;strokeColor=#6881B3;gradientColor=none;gradientDirection=north;strokeWidth=2;shape=mxgraph.networks.printer;fontFamily=Times New Roman;fontSize=14;" vertex="1" parent="1">
          <mxGeometry x="160" y="880" width="100" height="100" as="geometry" />
        </mxCell>
        <mxCell id="NG0Zpgs2vCCvzgkHaFSl-39" value="" style="endArrow=none;html=1;rounded=0;entryX=0.5;entryY=1;entryDx=0;entryDy=0;entryPerimeter=0;fontFamily=Times New Roman;fontSize=14;" edge="1" parent="1" source="NG0Zpgs2vCCvzgkHaFSl-34" target="NG0Zpgs2vCCvzgkHaFSl-21">
          <mxGeometry width="50" height="50" relative="1" as="geometry">
            <mxPoint x="510" y="780" as="sourcePoint" />
            <mxPoint x="560" y="730" as="targetPoint" />
          </mxGeometry>
        </mxCell>
        <mxCell id="NG0Zpgs2vCCvzgkHaFSl-40" value="" style="endArrow=none;html=1;rounded=0;entryX=0.5;entryY=1;entryDx=0;entryDy=0;entryPerimeter=0;exitX=0.5;exitY=0;exitDx=0;exitDy=0;exitPerimeter=0;fontFamily=Times New Roman;fontSize=14;" edge="1" parent="1" source="NG0Zpgs2vCCvzgkHaFSl-36" target="NG0Zpgs2vCCvzgkHaFSl-21">
          <mxGeometry width="50" height="50" relative="1" as="geometry">
            <mxPoint x="510" y="780" as="sourcePoint" />
            <mxPoint x="560" y="730" as="targetPoint" />
          </mxGeometry>
        </mxCell>
        <mxCell id="NG0Zpgs2vCCvzgkHaFSl-41" value="" style="endArrow=none;html=1;rounded=0;fontFamily=Times New Roman;fontSize=14;" edge="1" parent="1" source="NG0Zpgs2vCCvzgkHaFSl-35" target="NG0Zpgs2vCCvzgkHaFSl-32">
          <mxGeometry width="50" height="50" relative="1" as="geometry">
            <mxPoint x="510" y="780" as="sourcePoint" />
            <mxPoint x="560" y="730" as="targetPoint" />
          </mxGeometry>
        </mxCell>
        <mxCell id="NG0Zpgs2vCCvzgkHaFSl-42" value="Server" style="fontColor=#0066CC;verticalAlign=top;verticalLabelPosition=bottom;labelPosition=center;align=center;html=1;outlineConnect=0;fillColor=#CCCCCC;strokeColor=#6881B3;gradientColor=none;gradientDirection=north;strokeWidth=2;shape=mxgraph.networks.server;fontFamily=Times New Roman;fontSize=14;" vertex="1" parent="1">
          <mxGeometry x="550" y="860" width="90" height="100" as="geometry" />
        </mxCell>
        <mxCell id="NG0Zpgs2vCCvzgkHaFSl-43" value="" style="endArrow=none;html=1;rounded=0;entryX=0.5;entryY=0;entryDx=0;entryDy=0;entryPerimeter=0;fontFamily=Times New Roman;fontSize=14;exitX=0.5;exitY=1;exitDx=0;exitDy=0;exitPerimeter=0;" edge="1" parent="1" source="NG0Zpgs2vCCvzgkHaFSl-17" target="NG0Zpgs2vCCvzgkHaFSl-42">
          <mxGeometry width="50" height="50" relative="1" as="geometry">
            <mxPoint x="282.3333333333335" y="650" as="sourcePoint" />
            <mxPoint x="560" y="730" as="targetPoint" />
          </mxGeometry>
        </mxCell>
        <mxCell id="NG0Zpgs2vCCvzgkHaFSl-44" value="Server" style="fontColor=#0066CC;verticalAlign=top;verticalLabelPosition=bottom;labelPosition=center;align=center;html=1;outlineConnect=0;fillColor=#CCCCCC;strokeColor=#6881B3;gradientColor=none;gradientDirection=north;strokeWidth=2;shape=mxgraph.networks.server;fontFamily=Times New Roman;fontSize=14;" vertex="1" parent="1">
          <mxGeometry x="860" y="485" width="90" height="100" as="geometry" />
        </mxCell>
        <mxCell id="NG0Zpgs2vCCvzgkHaFSl-49" value="" style="endArrow=none;html=1;rounded=0;fontFamily=Times New Roman;fontSize=14;exitX=0.5;exitY=0;exitDx=0;exitDy=0;exitPerimeter=0;" edge="1" parent="1" source="NG0Zpgs2vCCvzgkHaFSl-84" target="NG0Zpgs2vCCvzgkHaFSl-32">
          <mxGeometry width="50" height="50" relative="1" as="geometry">
            <mxPoint x="410" y="880.9375" as="sourcePoint" />
            <mxPoint x="470" y="760" as="targetPoint" />
          </mxGeometry>
        </mxCell>
        <mxCell id="NG0Zpgs2vCCvzgkHaFSl-50" value="Server" style="fontColor=#0066CC;verticalAlign=top;verticalLabelPosition=bottom;labelPosition=center;align=center;html=1;outlineConnect=0;fillColor=#CCCCCC;strokeColor=#6881B3;gradientColor=none;gradientDirection=north;strokeWidth=2;shape=mxgraph.networks.server;fontFamily=Times New Roman;fontSize=14;" vertex="1" parent="1">
          <mxGeometry x="1110" y="680" width="90" height="100" as="geometry" />
        </mxCell>
        <mxCell id="NG0Zpgs2vCCvzgkHaFSl-52" value="Switch" style="fontColor=#0066CC;verticalAlign=top;verticalLabelPosition=bottom;labelPosition=center;align=center;html=1;outlineConnect=0;fillColor=#CCCCCC;strokeColor=#6881B3;gradientColor=none;gradientDirection=north;strokeWidth=2;shape=mxgraph.networks.switch;fontFamily=Times New Roman;fontSize=14;" vertex="1" parent="1">
          <mxGeometry x="1030" y="535" width="100" height="30" as="geometry" />
        </mxCell>
        <mxCell id="NG0Zpgs2vCCvzgkHaFSl-54" value="" style="endArrow=none;html=1;rounded=0;entryX=0.5;entryY=1;entryDx=0;entryDy=0;entryPerimeter=0;fontFamily=Times New Roman;fontSize=14;" edge="1" parent="1" source="NG0Zpgs2vCCvzgkHaFSl-50" target="NG0Zpgs2vCCvzgkHaFSl-52">
          <mxGeometry width="50" height="50" relative="1" as="geometry">
            <mxPoint x="1180" y="650" as="sourcePoint" />
            <mxPoint x="470" y="640" as="targetPoint" />
          </mxGeometry>
        </mxCell>
        <mxCell id="NG0Zpgs2vCCvzgkHaFSl-55" value="Cameras" style="fontColor=#0066CC;verticalAlign=top;verticalLabelPosition=bottom;labelPosition=center;align=center;html=1;outlineConnect=0;fillColor=#CCCCCC;strokeColor=#6881B3;gradientColor=none;gradientDirection=north;strokeWidth=2;shape=mxgraph.networks.security_camera;fontFamily=Times New Roman;fontSize=14;" vertex="1" parent="1">
          <mxGeometry x="1280" y="670" width="100" height="75" as="geometry" />
        </mxCell>
        <mxCell id="NG0Zpgs2vCCvzgkHaFSl-57" value="PC" style="fontColor=#0066CC;verticalAlign=top;verticalLabelPosition=bottom;labelPosition=center;align=center;html=1;outlineConnect=0;fillColor=#CCCCCC;strokeColor=#6881B3;gradientColor=none;gradientDirection=north;strokeWidth=2;shape=mxgraph.networks.pc;fontFamily=Times New Roman;fontSize=14;" vertex="1" parent="1">
          <mxGeometry x="950" y="675" width="100" height="70" as="geometry" />
        </mxCell>
        <mxCell id="NG0Zpgs2vCCvzgkHaFSl-58" value="" style="endArrow=none;html=1;rounded=0;entryX=0.5;entryY=1;entryDx=0;entryDy=0;entryPerimeter=0;exitX=0.5;exitY=0.07;exitDx=0;exitDy=0;exitPerimeter=0;fontFamily=Times New Roman;fontSize=14;" edge="1" parent="1" source="NG0Zpgs2vCCvzgkHaFSl-57" target="NG0Zpgs2vCCvzgkHaFSl-52">
          <mxGeometry width="50" height="50" relative="1" as="geometry">
            <mxPoint x="420" y="690" as="sourcePoint" />
            <mxPoint x="470" y="640" as="targetPoint" />
          </mxGeometry>
        </mxCell>
        <mxCell id="NG0Zpgs2vCCvzgkHaFSl-59" value="" style="endArrow=none;html=1;rounded=0;exitX=0.3;exitY=0;exitDx=0;exitDy=0;exitPerimeter=0;fontFamily=Times New Roman;fontSize=14;" edge="1" parent="1" source="NG0Zpgs2vCCvzgkHaFSl-55" target="NG0Zpgs2vCCvzgkHaFSl-52">
          <mxGeometry width="50" height="50" relative="1" as="geometry">
            <mxPoint x="420" y="690" as="sourcePoint" />
            <mxPoint x="470" y="640" as="targetPoint" />
          </mxGeometry>
        </mxCell>
        <mxCell id="NG0Zpgs2vCCvzgkHaFSl-62" value="Server" style="fontColor=#0066CC;verticalAlign=top;verticalLabelPosition=bottom;labelPosition=center;align=center;html=1;outlineConnect=0;fillColor=#CCCCCC;strokeColor=#6881B3;gradientColor=none;gradientDirection=north;strokeWidth=2;shape=mxgraph.networks.server;fontFamily=Times New Roman;fontSize=14;" vertex="1" parent="1">
          <mxGeometry x="815" y="737.5" width="90" height="100" as="geometry" />
        </mxCell>
        <mxCell id="NG0Zpgs2vCCvzgkHaFSl-63" value="Scanner" style="fontColor=#0066CC;verticalAlign=top;verticalLabelPosition=bottom;labelPosition=center;align=center;html=1;outlineConnect=0;fillColor=#CCCCCC;strokeColor=#6881B3;gradientColor=none;gradientDirection=north;strokeWidth=2;shape=mxgraph.networks.scanner;fontFamily=Times New Roman;fontSize=14;" vertex="1" parent="1">
          <mxGeometry x="715" y="880" width="100" height="75" as="geometry" />
        </mxCell>
        <mxCell id="NG0Zpgs2vCCvzgkHaFSl-65" value="PC" style="fontColor=#0066CC;verticalAlign=top;verticalLabelPosition=bottom;labelPosition=center;align=center;html=1;outlineConnect=0;fillColor=#CCCCCC;strokeColor=#6881B3;gradientColor=none;gradientDirection=north;strokeWidth=2;shape=mxgraph.networks.pc;fontFamily=Times New Roman;fontSize=14;" vertex="1" parent="1">
          <mxGeometry x="580" y="720" width="100" height="70" as="geometry" />
        </mxCell>
        <mxCell id="NG0Zpgs2vCCvzgkHaFSl-66" value="" style="endArrow=none;html=1;rounded=0;entryX=0.5;entryY=1;entryDx=0;entryDy=0;entryPerimeter=0;fontFamily=Times New Roman;fontSize=14;" edge="1" parent="1" source="NG0Zpgs2vCCvzgkHaFSl-65" target="NG0Zpgs2vCCvzgkHaFSl-17">
          <mxGeometry width="50" height="50" relative="1" as="geometry">
            <mxPoint x="270" y="530" as="sourcePoint" />
            <mxPoint x="530" y="650" as="targetPoint" />
          </mxGeometry>
        </mxCell>
        <mxCell id="NG0Zpgs2vCCvzgkHaFSl-67" value="" style="endArrow=none;html=1;rounded=0;entryX=0.5;entryY=1;entryDx=0;entryDy=0;entryPerimeter=0;fontFamily=Times New Roman;fontSize=14;" edge="1" parent="1" source="NG0Zpgs2vCCvzgkHaFSl-63" target="NG0Zpgs2vCCvzgkHaFSl-65">
          <mxGeometry width="50" height="50" relative="1" as="geometry">
            <mxPoint x="270" y="530" as="sourcePoint" />
            <mxPoint x="320" y="480" as="targetPoint" />
          </mxGeometry>
        </mxCell>
        <mxCell id="NG0Zpgs2vCCvzgkHaFSl-68" value="" style="endArrow=none;html=1;rounded=0;fontFamily=Times New Roman;fontSize=14;" edge="1" parent="1" source="NG0Zpgs2vCCvzgkHaFSl-62" target="NG0Zpgs2vCCvzgkHaFSl-17">
          <mxGeometry width="50" height="50" relative="1" as="geometry">
            <mxPoint x="270" y="530" as="sourcePoint" />
            <mxPoint x="562.4590163934427" y="650" as="targetPoint" />
          </mxGeometry>
        </mxCell>
        <mxCell id="NG0Zpgs2vCCvzgkHaFSl-71" value="" style="endArrow=none;html=1;rounded=0;entryX=0.5;entryY=1;entryDx=0;entryDy=0;entryPerimeter=0;exitX=0.5;exitY=0;exitDx=0;exitDy=0;exitPerimeter=0;fontFamily=Times New Roman;fontSize=14;" edge="1" parent="1" source="NG0Zpgs2vCCvzgkHaFSl-75" target="NG0Zpgs2vCCvzgkHaFSl-23">
          <mxGeometry width="50" height="50" relative="1" as="geometry">
            <mxPoint x="710" y="390" as="sourcePoint" />
            <mxPoint x="930" y="620" as="targetPoint" />
          </mxGeometry>
        </mxCell>
        <mxCell id="NG0Zpgs2vCCvzgkHaFSl-72" value="" style="endArrow=none;html=1;rounded=0;entryX=0.5;entryY=1;entryDx=0;entryDy=0;entryPerimeter=0;exitX=0.5;exitY=0;exitDx=0;exitDy=0;exitPerimeter=0;fontFamily=Times New Roman;fontSize=14;" edge="1" parent="1" source="NG0Zpgs2vCCvzgkHaFSl-75">
          <mxGeometry width="50" height="50" relative="1" as="geometry">
            <mxPoint x="880" y="670" as="sourcePoint" />
            <mxPoint x="710" y="420" as="targetPoint" />
          </mxGeometry>
        </mxCell>
        <mxCell id="NG0Zpgs2vCCvzgkHaFSl-73" value="" style="endArrow=none;html=1;rounded=0;exitX=0.5;exitY=0;exitDx=0;exitDy=0;exitPerimeter=0;fontFamily=Times New Roman;fontSize=14;" edge="1" parent="1" source="NG0Zpgs2vCCvzgkHaFSl-22" target="NG0Zpgs2vCCvzgkHaFSl-75">
          <mxGeometry width="50" height="50" relative="1" as="geometry">
            <mxPoint x="880" y="670" as="sourcePoint" />
            <mxPoint x="710" y="420" as="targetPoint" />
          </mxGeometry>
        </mxCell>
        <mxCell id="NG0Zpgs2vCCvzgkHaFSl-74" value="" style="endArrow=none;html=1;rounded=0;exitX=0.5;exitY=0.07;exitDx=0;exitDy=0;exitPerimeter=0;fontFamily=Times New Roman;fontSize=14;" edge="1" parent="1" source="NG0Zpgs2vCCvzgkHaFSl-24" target="NG0Zpgs2vCCvzgkHaFSl-75">
          <mxGeometry width="50" height="50" relative="1" as="geometry">
            <mxPoint x="880" y="670" as="sourcePoint" />
            <mxPoint x="697.237237237237" y="420" as="targetPoint" />
          </mxGeometry>
        </mxCell>
        <mxCell id="NG0Zpgs2vCCvzgkHaFSl-76" value="" style="endArrow=none;html=1;rounded=0;exitX=0.5;exitY=0;exitDx=0;exitDy=0;exitPerimeter=0;fontFamily=Times New Roman;fontSize=14;" edge="1" parent="1" source="NG0Zpgs2vCCvzgkHaFSl-44" target="NG0Zpgs2vCCvzgkHaFSl-75">
          <mxGeometry width="50" height="50" relative="1" as="geometry">
            <mxPoint x="905" y="485" as="sourcePoint" />
            <mxPoint x="710" y="420" as="targetPoint" />
          </mxGeometry>
        </mxCell>
        <mxCell id="NG0Zpgs2vCCvzgkHaFSl-75" value="Router" style="fontColor=#0066CC;verticalAlign=top;verticalLabelPosition=bottom;labelPosition=center;align=center;html=1;outlineConnect=0;fillColor=#CCCCCC;strokeColor=#6881B3;gradientColor=none;gradientDirection=north;strokeWidth=2;shape=mxgraph.networks.router;fontFamily=Times New Roman;fontSize=14;" vertex="1" parent="1">
          <mxGeometry x="660" y="395" width="100" height="30" as="geometry" />
        </mxCell>
        <mxCell id="NG0Zpgs2vCCvzgkHaFSl-78" value="" style="endArrow=none;html=1;rounded=0;entryX=0.5;entryY=1;entryDx=0;entryDy=0;entryPerimeter=0;exitX=0.5;exitY=0;exitDx=0;exitDy=0;exitPerimeter=0;" edge="1" parent="1" source="NG0Zpgs2vCCvzgkHaFSl-2" target="NG0Zpgs2vCCvzgkHaFSl-1">
          <mxGeometry width="50" height="50" relative="1" as="geometry">
            <mxPoint x="880" y="530" as="sourcePoint" />
            <mxPoint x="930" y="480" as="targetPoint" />
          </mxGeometry>
        </mxCell>
        <mxCell id="NG0Zpgs2vCCvzgkHaFSl-79" value="" style="endArrow=none;html=1;rounded=0;entryX=0.5;entryY=1;entryDx=0;entryDy=0;entryPerimeter=0;exitX=0.5;exitY=0;exitDx=0;exitDy=0;exitPerimeter=0;" edge="1" parent="1" source="NG0Zpgs2vCCvzgkHaFSl-13" target="NG0Zpgs2vCCvzgkHaFSl-1">
          <mxGeometry width="50" height="50" relative="1" as="geometry">
            <mxPoint x="500" y="170" as="sourcePoint" />
            <mxPoint x="680" y="110" as="targetPoint" />
          </mxGeometry>
        </mxCell>
        <mxCell id="NG0Zpgs2vCCvzgkHaFSl-80" value="" style="endArrow=none;html=1;rounded=0;entryX=0.5;entryY=1;entryDx=0;entryDy=0;entryPerimeter=0;" edge="1" parent="1" source="NG0Zpgs2vCCvzgkHaFSl-14" target="NG0Zpgs2vCCvzgkHaFSl-13">
          <mxGeometry width="50" height="50" relative="1" as="geometry">
            <mxPoint x="510" y="180" as="sourcePoint" />
            <mxPoint x="690" y="120" as="targetPoint" />
          </mxGeometry>
        </mxCell>
        <mxCell id="NG0Zpgs2vCCvzgkHaFSl-81" value="" style="endArrow=none;html=1;rounded=0;" edge="1" parent="1" target="NG0Zpgs2vCCvzgkHaFSl-14">
          <mxGeometry width="50" height="50" relative="1" as="geometry">
            <mxPoint x="1070" y="530" as="sourcePoint" />
            <mxPoint x="700" y="130" as="targetPoint" />
          </mxGeometry>
        </mxCell>
        <mxCell id="NG0Zpgs2vCCvzgkHaFSl-82" value="" style="endArrow=none;html=1;rounded=0;exitX=0.5;exitY=1;exitDx=0;exitDy=0;exitPerimeter=0;entryX=0.5;entryY=0;entryDx=0;entryDy=0;entryPerimeter=0;" edge="1" parent="1" source="NG0Zpgs2vCCvzgkHaFSl-2" target="NG0Zpgs2vCCvzgkHaFSl-9">
          <mxGeometry width="50" height="50" relative="1" as="geometry">
            <mxPoint x="530" y="200" as="sourcePoint" />
            <mxPoint x="710" y="140" as="targetPoint" />
          </mxGeometry>
        </mxCell>
        <mxCell id="NG0Zpgs2vCCvzgkHaFSl-83" value="" style="endArrow=none;html=1;rounded=0;exitX=0.5;exitY=1;exitDx=0;exitDy=0;exitPerimeter=0;" edge="1" parent="1" source="NG0Zpgs2vCCvzgkHaFSl-9" target="NG0Zpgs2vCCvzgkHaFSl-17">
          <mxGeometry width="50" height="50" relative="1" as="geometry">
            <mxPoint x="540" y="210" as="sourcePoint" />
            <mxPoint x="720" y="150" as="targetPoint" />
          </mxGeometry>
        </mxCell>
        <mxCell id="NG0Zpgs2vCCvzgkHaFSl-84" value="Printer" style="fontColor=#0066CC;verticalAlign=top;verticalLabelPosition=bottom;labelPosition=center;align=center;html=1;outlineConnect=0;fillColor=#CCCCCC;strokeColor=#6881B3;gradientColor=none;gradientDirection=north;strokeWidth=2;shape=mxgraph.networks.printer;fontFamily=Times New Roman;fontSize=14;" vertex="1" parent="1">
          <mxGeometry x="410" y="880" width="100" height="100" as="geometry" />
        </mxCell>
      </root>
    </mxGraphModel>
  </diagram>
</mxfile>
